<?xml version="1.0" encoding="utf-8"?>
<!-- Generator: Adobe Illustrator 22.1.0, SVG Export Plug-In . SVG Version: 6.00 Build 0)  -->
<svg version="1.1" id="Layer_1" xmlns="http://www.w3.org/2000/svg" xmlns:xlink="http://www.w3.org/1999/xlink" x="0px" y="0px"
	 viewBox="0 0 61 58.9" style="enable-background:new 0 0 61 58.9;" xml:space="preserve">
<title>spotlight-stage-
lights-
illuminated-spotlights</title>
<g>
	<path d="M27.2,52.1L25,51.8l-1-2.2c-0.2-0.5-0.8-0.7-1.3-0.5c-0.2,0.1-0.4,0.3-0.5,0.5l-1,2.2L19,52.1c-0.5,0.1-0.9,0.6-0.8,1.1
		c0,0.2,0.1,0.4,0.3,0.5l1.6,1.7l-0.4,2.4c-0.1,0.5,0.3,1.1,0.8,1.1c0.2,0,0.4,0,0.6-0.1l2-1.1l2,1.1c0.5,0.3,1.1,0.1,1.4-0.4
		c0.1-0.2,0.1-0.4,0.1-0.6l-0.4-2.4l1.6-1.7c0.4-0.4,0.4-1,0-1.4C27.5,52.2,27.4,52.1,27.2,52.1L27.2,52.1z M24.3,54.4
		C24.1,54.6,24,55,24,55.3l0.1,0.9l-0.7-0.4c-0.3-0.2-0.7-0.2-1,0l-0.7,0.4l0.1-0.9c0.1-0.3,0-0.6-0.3-0.9l-0.6-0.7l0.8-0.1
		c0.3-0.1,0.6-0.3,0.8-0.6l0.3-0.7l0.3,0.7c0.1,0.3,0.4,0.5,0.8,0.6l0.8,0.1L24.3,54.4z"/>
	<path d="M40.2,47.6L36.5,47l-1.6-3.5c-0.2-0.5-0.8-0.7-1.3-0.5c-0.2,0.1-0.4,0.3-0.5,0.5L31.5,47l-3.6,0.6
		c-0.5,0.1-0.9,0.6-0.8,1.1c0,0.2,0.1,0.4,0.3,0.5l2.6,2.7l-0.6,3.8c-0.1,0.5,0.3,1.1,0.8,1.1c0.2,0,0.4,0,0.6-0.1l3.2-1.8l3.2,1.8
		c0.5,0.3,1.1,0.1,1.4-0.4c0.1-0.2,0.2-0.4,0.1-0.7L38.1,52l2.6-2.7c0.4-0.4,0.4-1,0-1.4C40.5,47.7,40.4,47.6,40.2,47.6L40.2,47.6z
		 M36.3,51c-0.2,0.2-0.3,0.5-0.3,0.9l0.4,2.3l-1.9-1.1c-0.3-0.2-0.7-0.2-1,0l-1.9,1.1l0.4-2.3c0.1-0.3,0-0.6-0.3-0.9l-1.6-1.7
		l2.2-0.3c0.3,0,0.6-0.3,0.8-0.6l0.9-2l0.9,2c0.1,0.3,0.4,0.5,0.8,0.6l2.2,0.3L36.3,51z"/>
	<path d="M60,2c0.6,0,1-0.4,1-1s-0.4-1-1-1H1C0.4,0,0,0.4,0,1s0.4,1,1,1h4.6l-3,3H1C0.4,5,0,5.4,0,6s0.4,1,1,1h3v3.8l-1.8,1.9
		c-1.7,1.7-1.6,4.5,0.1,6.2l4.1,3.9c0.2,0.2,0.4,0.3,0.7,0.3l0,0c0.1,0,0.2,0,0.3-0.1l11.1,16l-5.6,16.7c-0.2,0.5,0.1,1.1,0.6,1.3
		s1.1-0.1,1.3-0.6L20,41l3.1,4.5c0.3,0.5,0.9,0.6,1.4,0.2c0.5-0.3,0.6-0.9,0.2-1.4l-4-5.7l6.1-18.4c0-0.1,0-0.2,0-0.3h6
		c0,0.1,0,0.2,0.1,0.3l4.3,12l-4.2,6c-0.3,0.4-0.2,1.1,0.2,1.4c0.4,0.3,1.1,0.2,1.4-0.2l0,0l3.4-4.9l7.8,21.7
		c0.1,0.4,0.5,0.7,0.9,0.7c0.1,0,0.2,0,0.3-0.1c0.5-0.2,0.8-0.8,0.6-1.3l-8.3-23L48.5,20l6.4,2.2L48,49.8c-0.1,0.5,0.2,1.1,0.7,1.2
		l0,0c0.1,0,0.2,0,0.2,0c0.5,0,0.9-0.3,1-0.8l6.8-27.4c0.1,0,0.1,0,0.2,0c0.4,0,0.8-0.3,0.9-0.7l1.8-5.3c0.8-2.3-0.4-4.8-2.7-5.5
		h-0.1V7h3c0.6,0,1-0.4,1-1s-0.4-1-1-1h-4.6l3-3H60z M25.4,5L28,2.4L30.6,5H25.4z M20.6,5h-5.2L18,2.4L20.6,5z M20.4,2h5.2L23,4.6
		L20.4,2z M30.4,2h5.2L33,4.6L30.4,2z M38,2.4L40.6,5h-5.2L38,2.4z M40.4,2h5.2L43,4.6L40.4,2z M15.6,2L13,4.6L10.4,2H15.6z M8,2.4
		L10.6,5H5.4L8,2.4z M29,7v2h-0.6C26,9,24,11,24,13.4V19c0,0.5,0.4,1,0.9,1l-0.7,2l-9.8-6.2l0.2-0.2c0.4-0.4,0.4-1,0-1.4l0,0
		l-4.1-3.9c-0.8-0.8-2-1.2-3.1-1.2c-0.5,0-1,0.1-1.5,0.3L6,7H29z M34,18h-8v-4.6c0-1.3,1.1-2.4,2.4-2.4h3.3c1.3,0,2.4,1.1,2.4,2.4
		V18H34z M3.7,17.4c-0.9-0.9-1-2.4-0.1-3.3l2.3-2.4c0.4-0.5,1-0.7,1.6-0.7h0.1c0.6,0,1.2,0.2,1.6,0.7l3.4,3.2l-5.5,5.8L3.7,17.4z
		 M8.9,21.6l4.2-4.3l10.4,6.6c0.1,0,0.1,0.1,0.2,0.1l-4.2,12.7L8.9,21.6z M57.8,14.4c0.3,0.6,0.3,1.2,0.1,1.8l-1.5,4.4L48.8,18
		l1.5-4.4c0.4-1.2,1.8-1.9,3-1.5l0,0l3.1,1.1C57,13.4,57.5,13.8,57.8,14.4L57.8,14.4z M55,10.6l-1.1-0.4c-2.3-0.8-4.8,0.4-5.5,2.7
		l-1.8,5.3c-0.1,0.3-0.1,0.5,0,0.8c0,0,0,0,0.1,0.1l-7.9,11.3L35.1,20c0.5,0,0.9-0.5,0.9-1v-5.6C36,11,34,9,31.6,9H31V7h24V10.6z
		 M45.4,5L48,2.4L50.6,5H45.4z M53,4.6L50.4,2h5.2L53,4.6z"/>
</g>
</svg>
