<?xml version="1.0" encoding="utf-8"?>
<!-- Generator: Adobe Illustrator 22.1.0, SVG Export Plug-In . SVG Version: 6.00 Build 0)  -->
<svg version="1.1" id="Layer_1" xmlns="http://www.w3.org/2000/svg" xmlns:xlink="http://www.w3.org/1999/xlink" x="0px" y="0px"
	 viewBox="0 0 90.2 85.1" style="enable-background:new 0 0 90.2 85.1;" xml:space="preserve">
<path d="M52.8,0c0.9,0.5,1,1.4,1.3,2.3c0.4,1.2,0.7,2.5,1.1,3.8c1-0.1,2-0.1,3.1-0.2c3.2-0.1,6.4-0.2,9.7-0.3c0.9,0,1.7-0.1,2.6-0.1
	c0.5,0,0.9,0.2,0.8,0.9c-0.1,2-0.1,3.9-0.2,5.9c0,0.3,0,0.5,0,1c3.4,0.7,6.7,1.3,10.1,2c2.7,0.5,5.4,1,8.1,1.5
	c0.9,0.2,1,0.7,0.6,1.5c-0.3,0.7-0.5,1.4-0.8,2.1c-1,2.2-2,4.4-3,6.7c-1.6,3.6-3.1,7.3-4.8,10.9c-2,4.5-4.2,9.1-6.2,13.7
	c-0.9,2-1.6,4-2.4,6c-1,2.4-2.1,4.8-3.3,7.2c-0.6,1.2-0.5,2.2-0.1,3.4c0.5,1.5,0.5,1.4-0.8,2.2c-0.3,0.2-0.5,0.5-0.6,0.8
	c-0.2,1.4-0.3,2.7-0.4,4.1c0,0.3,0.4,0.6,0.7,1.2c-0.3,0.1-0.7,0.4-1,0.4c-1.5-0.1-3.1-0.3-4.6-0.5c-1.9-0.2-3.8-0.4-5.7-0.5
	c-1.6-0.1-3.2-0.2-4.9-0.3c-0.3,0-0.6,0-0.9,0.1c-6.2,2-12.4,4.1-18.7,6c-3.8,1.2-7.8,2.1-11.7,3.2c-0.7,0.2-1.1-0.2-1.2-0.7
	c-1-3.4-2-6.7-3-10.1c-0.5-1.7-0.9-3.4-1.3-5.1c-1.3-4.8-2.4-9.6-4.3-14.2c-0.9-2.2-1.7-4.4-2.4-6.7c-0.8-2.4-1.3-4.9-2-7.3
	c-0.7-2.6-1.4-5.2-2.1-7.8c-0.9-3.5-1.6-7-2.5-10.4c-0.6-2.4-1.3-4.8-2-7.2c0-0.1,0-0.2,0-0.3c0.2-0.1,0.3-0.3,0.5-0.4
	c0.5-0.1,1-0.2,1.4-0.3c3.3-1.1,6.5-2.3,9.8-3.4c1.2-0.4,2.3-0.8,3.5-1c3.9-0.9,7.9-1.7,11.7-2.8c4.8-1.4,9.4-3.2,14.1-4.7
	c3.1-1,6.4-1.7,9.5-2.6C51.5,0,52.1,0,52.8,0z M3.1,16c0.1,0.4,0.2,0.6,0.3,0.9c0.8,2.9,1.7,5.7,2.4,8.6c0.8,3.2,1.6,6.5,2.3,9.8
	C9.6,42,11.7,48.4,13.7,55c1.8,5.7,3.4,11.5,5.1,17.2c0.5,1.6,0.7,3.3,1.1,4.9c0.5,1.9,1.2,3.9,1.9,5.9
	c14.7-5.4,29.4-10.5,44.3-14.7c-0.1-0.6-0.1-1.2-0.2-1.7c-0.8-3-1.7-6-2.5-9c-0.4-1.4-0.6-2.7-0.9-4.1c-0.3-1.4-0.6-2.7-0.9-4.1
	c-0.3-1.4-0.7-2.7-0.9-4.1c-0.2-1.3-0.6-2.6-0.9-3.9c-0.9-4.2-1.9-8.4-2.9-12.6c-1.2-5.4-2.5-10.9-3.2-16.4C53.5,10.7,53,9,52.6,7.3
	c-0.4-1.7-0.7-3.4-1.1-5.1c-0.6,0.1-1.2,0.1-1.7,0.2c-5.5,1.2-11,2.5-16.3,4.4c-8.8,3.2-17.9,5.8-26.9,8.3C5.6,15.5,4.4,15.7,3.1,16
	z M62.6,44.7c0.1-0.1,0.2-0.1,0.2-0.2c0-0.4,0-0.9,0-1.3c0-0.5,0.1-0.9,0.2-1.4c0.1-0.4,0.3-0.7,0.3-1.1c-0.1-7,0.1-13.9,0.8-20.9
	c0.1-1.1,0.2-2.1,0.4-3.2c0-0.2,0.4-0.6,0.6-0.6c0.4,0,0.6,0.3,0.6,0.8c-0.1,0.8-0.1,1.5-0.1,2.3c-0.3,4.6-0.6,9.3-0.8,13.9
	c-0.1,2.1-0.2,4.3-0.3,6.4c-0.1,1.4-0.4,2.7-0.4,4.1c-0.1,1.5,0,1.5-1.4,2c1.2,5.2,2.3,10.4,3.5,15.6c0.2-0.1,0.2-0.1,0.2-0.2
	c-0.2-5.8,0.5-11.5,0.9-17.3c0.4-5,0.7-10.1,1-15.1c0.2-3.3,0.4-6.5,0.6-9.8c0.2-3.7,0.4-7.3,0.6-11c0-0.2,0-0.4,0-0.4
	c-5,0.3-9.9,0.6-14.9,0.8c0.2,0.7,0.3,1.4,0.5,2.1c0.3,0,0.5,0,0.7,0c2,0,4.1-0.1,6.1-0.1c0.3,0,0.7,0.3,0.9,0.6
	c0.3,0.3,0.5,0.7,0.8,1.1c-0.3,0.5-0.8,0.8-1.5,1s-1.2,0.5-1.8,0c0.3-0.8,0.3-0.8-0.2-0.9c0,0.1,0,0.3,0,0.4c0,1.2,0,1.1-1.2,1.2
	c-1,0-2.1,0.2-3.2,0.3c0.2,1,0.4,2,0.6,2.9c2.7,0,5.3-0.7,8-0.3c-2.5,0.9-5.1,1.2-7.8,1.2c0.1,0.4,0.1,0.7,0.2,1
	c0.9,3.9,1.8,7.8,2.6,11.7c1,4.5,2,9,3.1,13.5C62.2,44.3,62.4,44.5,62.6,44.7z M70.5,18.8c-0.1,0.7-0.4,1.6,0.7,2.1
	c2.2,1,4.4,2.1,6.6,3.2c0-0.1,0-0.2,0-0.3c0.3-0.1,0.6-0.1,0.9-0.2c0.1,0.3,0.2,0.7,0.2,0.9c-0.5,1.4-1,2.8-1.6,4.2
	c-1.9,4.7-3.8,9.4-5.7,14c-0.7,1.7-1.4,3.4-2.1,5.1c-0.2,0.5-0.2,1.1-1,0.8c-0.3,4.4-0.8,8.6-0.4,13.1c0.4-0.9,0.7-1.6,1.1-2.4
	c1.1-2.4,2.3-4.8,3.4-7.2c1.3-3,2.5-6,3.7-9.1c1.4-3.3,2.8-6.5,4.2-9.8c1.1-2.5,2.2-5,3.3-7.5c1-2.3,2.1-4.6,3.1-6.9
	c-5.4-1.3-10.7-2.7-16.1-4c-0.1,0.9-0.2,1.8-0.2,2.8c0,0.3,0.4,0.6,0.7,0.7c1,0.4,2.1,0.7,3.2,1.1c0.2-0.4,0.3-0.8,0.5-1.3
	c-0.2-0.1-0.3-0.1-0.5-0.2c-1-0.2-2-0.4-2.9-0.7c-0.3-0.1-0.5-0.4-0.8-0.6c0.1-0.1,0.1-0.2,0.2-0.3c1.7,0.8,3.7,0.6,5.2,1.6
	c-0.2,0.6-0.5,1-0.6,1.5c-0.3,1-0.3,1-1.3,0.5c-0.1-0.1-0.3,0-0.4-0.1C72.7,19.6,71.6,19.2,70.5,18.8z M70.3,21.6
	c-0.5,8.3-1,16.6-1.5,25h0.1c3-7.3,5.9-14.6,8.9-21.9C75.2,23.7,72.8,22.7,70.3,21.6z M66,70c-3.6,1.1-7.3,2.2-10.9,3.3
	c3.5,0.4,7,0.9,10.5,1.3C65.7,73.1,65.8,71.6,66,70z M55,11.3c0.1,0.4,0.2,0.7,0.2,0.9c0,0.6,0.3,0.7,0.8,0.6
	c0.9-0.1,1.8-0.1,2.7-0.2c0-0.5,0-1,0-1.5C57.5,11.2,56.3,11.3,55,11.3z M11.1,25.6c0.3,0,0.7,0,1,0c0.5-0.1,1-0.2,1.4-0.3
	c8.2-2.1,16.2-4.7,24.3-7.2c2.7-0.8,5.5-1.3,8.2-1.9c0.4-0.1,0.8-0.1,1.2-0.1c0.2,0,0.4-0.1,0.6-0.2c0.5-0.5,0.9-0.5,1.1,0.3
	c0.3,1,0.4,2,0.7,3c1,4.1,2,8.3,3.1,12.4c0.9,3.5,1.9,7.1,2.8,10.6c0.3,1.1,0.7,2.2,0.9,3.3c0,0.2-0.3,0.6-0.5,0.7
	c-0.9,0.3-1.9,0.6-2.8,0.9c-8.2,2.6-16.3,5.3-24.5,7.8c-2.4,0.7-4.8,1.2-7.3,1.7c-0.6,0.1-0.9,0-1.2-0.8c-3.1-7-4.5-14.5-6.5-21.8
	c-0.6-2.3-1.2-4.5-1.8-6.8C11.7,26.7,11.4,26.3,11.1,25.6z M55.6,45c-0.5-1.1-0.9-2-1.2-3c-0.8-2.6-1.6-5.2-2.2-7.9
	c-1.4-5.6-2.7-11.2-4-16.7c-0.1-0.4-0.2-0.6-0.7-0.5c-3,0.7-6.1,1.2-9,2.1c-8.5,2.7-17,5.5-25.7,7.4c1.3,5,2.5,10,3.8,15
	c1.3,4.6,2.7,9.1,4,13.6c0.2,0.7,0.6,0.9,1.2,0.7c1.9-0.5,3.8-0.9,5.6-1.5c4.3-1.4,8.6-3,12.9-4.4C45.4,48.1,50.5,46.6,55.6,45z
	 M40.1,11.6c-0.4,0.5-0.6,1-1,1.3C38.9,13,38.6,13,38.3,13c-0.2,0-0.5-0.1-0.7,0c-4.8,1.4-9.7,2.9-14.5,4.4
	c-1.1,0.3-2.2,0.8-3.4,1.2c-0.8-1.1-0.8-2.5-0.9-3.9c0.1,0.3,0.3,0.5,0.5,0.9c0.8-0.3,1.5-0.6,2.3-0.8c4.6-1.5,9.2-3,13.7-4.6
	c0.2-0.1,0.4-0.1,0.6-0.1c1.7-0.4,2.3,0,2.8,1.4C39.2,11.5,39.6,11.6,40.1,11.6z M37.2,10.5c-5.9,1.9-11.8,3.9-17.7,5.8
	c0.1,0.3,0.2,0.7,0.3,1.1c5.7-2.5,11.8-3.7,17.7-5.5C37.4,11.5,37.3,11.1,37.2,10.5z M27.7,63.7c0.7-0.5,1.4-1,2.1-1.5
	c0.4-0.3,0.6-0.3,1,0.1c0.4,0.6,1.1,0.8,1.8,0.6c0.6-0.2,1.2-0.4,1.7-0.7c0.9-0.5,1.7-1.1,2.6-1.6c0.3-0.2,0.8-0.3,1.1-0.2
	c1.3,0.7,2.5,0.5,3.6-0.1c0.9-0.5,1.8-1.2,2.7-1.8c0.2-0.2,0.6-0.4,0.9-0.3c1.3,0.6,2.5,0.3,3.6-0.4c0.5-0.3,1-0.8,1.6-1.1
	c0.3-0.2,0.7-0.2,1-0.2c0.6-0.1,1.3,0,1.8-0.2c1-0.4,1.9-0.9,2.8-1.4c0.5-0.3,0.9-0.3,1.5-0.1s1.4,0.1,2.1,0c0.1,0,0.2-0.5,0.3-0.8
	c-0.3,0-0.6-0.1-0.9-0.1c-0.4,0-0.9,0.2-1.2,0.1c-0.8-0.4-1.6-0.3-2.4,0c-0.9,0.4-1.9,0.9-2.8,1.3c-0.3,0.1-0.7,0.1-1.1,0.2
	c-0.5,0.1-1.1,0.1-1.6,0.3c-0.9,0.4-1.8,1-2.7,1.4c-0.4,0.2-1.1,0.3-1.5,0.1c-0.8-0.3-1.4-0.2-2.1,0.2c-1.1,0.7-2.2,1.4-3.3,2
	c-0.4,0.2-1,0.3-1.4,0.1c-1.2-0.6-2.2-0.3-3.3,0.3c-1,0.6-2,1.2-3,1.7c-0.3,0.1-0.8,0.1-1-0.1c-1-0.6-1.4-0.7-2.3-0.1
	c-0.8,0.5-1.6,1.1-2.5,1.5c-0.4,0.2-1,0.2-1.5,0.3c-0.5,0.1-1,0.1-1.3,0.3c-0.9,0.6-1.6,1.2-2.5,1.9c1.6,0.4,2.2-1.3,3.5-1.9
	C25.9,64.5,26.8,64.3,27.7,63.7z M57.8,58.3c-1.1,0.5-2.2,1.2-3.4,1.3c-1.4,0.1-2.3,0.8-3.3,1.5c-0.3,0.2-0.6,0.5-1,0.6
	c-0.3,0.1-0.7,0.2-1,0c-0.9-0.6-1.6-0.4-2.4,0.2c-0.9,0.7-1.8,1.3-2.7,1.9c-0.2,0.2-0.8,0.2-0.9,0.1c-1-0.8-2-0.6-3,0
	c-1.2,0.7-2.4,1.4-3.6,2c-0.5,0.2-1.2,0.3-1.7,0.2c-1.2-0.4-2.3-0.2-3.3,0.6c-0.7,0.6-1.5,1.1-2.2,1.7c-0.7-0.9-1.6-0.8-2.4-0.4
	c-1,0.5-1.9,1.1-2.8,1.7c-0.1,0.1-0.2,0.2-0.4,0.3c0.1,0.1,0.3,0.4,0.4,0.3c0.4-0.1,0.8-0.2,1.2-0.4c0.9-0.5,1.7-1,2.6-1.5
	c1.1,1.2,1.6,1.3,2.8,0.3c0.7-0.5,1.3-1.1,2-1.6c0.4-0.2,1.1-0.5,1.4-0.3c1.6,0.7,3,0.2,4.3-0.7c0.9-0.6,1.8-1.1,2.7-1.7
	c0.4-0.3,0.8-0.2,1.2,0.1c0.7,0.7,1.5,0.7,2.3,0.2c0.8-0.5,1.5-1.1,2.2-1.7c0.4-0.3,0.8-0.7,1.2-1c1.4,1.1,2,1.1,3.4,0.1
	c0.3-0.3,0.6-0.5,0.9-0.8c0.6-0.6,1.2-1.3,2.2-0.9c0.2,0.1,0.5-0.1,0.8-0.2c0.6-0.3,1.2-0.5,1.8-0.9c0.8-0.4,1.5-0.9,2.5-0.6
	c0.1,0.1,0.4,0,0.8-0.1C59.5,58,58.7,57.9,57.8,58.3z M27.4,74.8c0.8-0.5,1.5-1.1,2.3-1.6c0.3-0.2,0.8-0.2,1-0.1
	c1.3,0.7,1.7,0.7,2.8-0.3c0.6-0.5,1.2-1.2,1.9-1.6c0.3-0.2,0.9-0.3,1.1-0.1c1,0.8,1.9,0.7,2.9,0.1c1-0.5,1.9-1.2,2.9-1.7
	c0.3-0.1,0.8-0.2,1,0c1.2,0.9,1.7,0.9,3,0c0.9-0.7,1.7-1.5,2.6-2.3c0.4-0.4,0.8-0.8,1.5-0.3c1,0.7,1.5,0.7,2.4-0.1
	c0.9-0.7,1.6-1.5,2.5-2.4c0.8,0.8,1.6,0.7,2.5,0.1c0.6-0.4,1.2-0.8,1.9-1.2c0.6-0.4,1.2-0.8,2-0.3c0.1,0.1,0.4-0.1,0.6-0.1
	c-0.1-0.2-0.1-0.4-0.3-0.5c-0.6-0.5-1.3-0.6-1.9-0.3c-1,0.5-2,1-3,1.5c-0.4,0.2-0.8,0.5-1.4,0.2c-0.3-0.2-0.9,0-1.3,0.3
	c-0.9,0.6-1.8,1.4-2.7,2c-0.2,0.2-0.7,0.3-0.9,0.2c-1.1-0.5-2-0.2-2.8,0.5c-1,0.7-1.9,1.4-2.9,2.1c-0.3,0.2-0.8,0.3-1.1,0.1
	c-0.9-0.6-1.7-0.5-2.5-0.1c-1.1,0.6-2.2,1.2-3.3,1.7c-0.3,0.2-0.9,0.2-1.1,0c-0.9-0.6-1.7-0.4-2.4,0.1c-0.8,0.6-1.6,1.2-2.4,1.7
	c-0.2,0.2-0.7,0.1-1,0c-0.6,0-1.3-0.4-1.7-0.2c-1.3,0.6-2.5,1.4-3.8,2.1C26.2,75.2,26.8,75.2,27.4,74.8z M56.5,49.5
	c-2.3,0.3-4.8-0.1-7,1.3c-0.6,0.4-1.3,0.8-2,1.1c-0.3,0.1-0.6,0.2-0.8,0.2c-1-0.3-1.8-0.1-2.7,0.4c-1.4,0.7-2.9,1.5-4.3,2.2
	c-0.4,0.2-0.9,0.5-1.3,0.4c-0.9-0.3-1.5,0.1-2.2,0.5c-0.7,0.4-1.4,1-2.1,1.3c-0.7,0.3-1.5,0.5-2.2,0.4c-1.1-0.2-1.9,0-2.8,0.6
	c-0.6,0.4-1.3,0.8-1.9,0.8c-1.3,0-2.4,0.2-3.4,0.9c-0.2,0.1-0.6,0.3-0.8,0.2c-0.9-0.4-1.2,0.2-1.6,0.8c0.3,0.1,0.5,0,0.8,0
	c0.2,0,0.4-0.3,0.6-0.2c0.8,0.3,1.5-0.1,2.1-0.6c0.7-0.4,1.4-0.5,2.1-0.5c0.7,0,1.3-0.1,2-0.3c0.6-0.2,1-0.6,1.6-0.9
	c0.3-0.1,0.6-0.2,0.9-0.1c1.2,0.4,2.3,0.3,3.3-0.3c0.8-0.4,1.5-1,2.2-1.4c0.3-0.2,0.8-0.5,1-0.4c1.3,0.5,2.4-0.2,3.4-0.7
	c1.3-0.7,2.6-1.4,4-2c0.3-0.1,0.7-0.1,1.1-0.1c0.6,0,1.2,0.1,1.7-0.1c0.8-0.3,1.4-0.8,2.2-1.2c0.7-0.3,1.4-0.7,2.2-0.9
	c0.7-0.2,1.5-0.2,2.2-0.3c0.7-0.1,1.4-0.3,2-0.5C56.5,49.7,56.5,49.6,56.5,49.5z M17.8,16.1c-0.1,0-0.2,0-0.3-0.1
	c-0.3,0.2-0.6,0.4-1,0.6c-0.1-0.2-0.2-0.4-0.4-0.6c-0.2-0.2-0.5-0.4-0.8-0.6c-0.1,0.3-0.3,0.5-0.4,0.8c-0.2,0.7,0.2,1.7-0.9,2
	c0.2,0.3,0.5,0.6,0.7,0.8c-0.1,0.1-0.2,0.2-0.3,0.2c-0.4-0.4-0.8-0.7-1.3-1.1c0.4-0.4,0.7-0.7,1-1c0-0.1-0.1-0.1-0.1-0.2
	c-0.4,0.1-0.8,0.2-1.2,0.4c-0.1-0.3-0.3-0.7-0.5-1c-0.1-0.2-0.4-0.2-0.6-0.3c-0.1,0.2-0.2,0.4-0.2,0.6c0,0.5,0.1,0.9,0,1.4
	c0,0.6-0.5,0.9-1,0.6c0-0.1-0.3-0.2-0.5-0.1c-0.7,0.2-1.1,0.1-1.4-0.6c-0.1-0.2-0.5-0.2-0.7-0.3c-0.1,0.2-0.2,0.4-0.2,0.6
	c0.1,0.9-0.1,1.6-1.2,1.7c-0.1,0-0.2,0.1-0.3,0.1c0,0.1,0.1,0.2,0.1,0.3c0.4,0.1,0.8,0.2,1.3,0.3c0,0.3,0,0.6,0.1,0.8
	C7.8,21.6,8,21.8,8.2,22c0.2-0.2,0.4-0.3,0.4-0.5c0-1,0.5-0.9,1.1-0.5c0.1,0.1,0.4,0.1,0.5,0c0.1,0,0.1-0.3,0.1-0.4
	c-0.6-0.7,0.1-1.1,0.4-1.5c0.7,0.2,1.3,0.4,1.2,1.3c0,0.1,0.3,0.3,0.4,0.5c0.1-0.1,0.3-0.3,0.4-0.4c0.1-0.2,0.1-0.5,0.1-0.7
	c2.2,0.4,3.1,0.1,3.3-1.5c0,0.4,0.1,0.7,0.1,1c0.1,0.1,0.2,0.3,0.3,0.4c0.1-1.8,1.2-0.9,2-1.3C17,17.9,17,17.1,17.8,16.1z M50.1,8.4
	c-0.3-0.4-0.6-0.8-0.9-1.2c-0.1-0.1-0.4-0.3-0.6-0.2c-0.1,0-0.3,0.3-0.3,0.5c-0.1,0.4-0.1,0.9-0.1,1.2c-0.9,0.1-1.6,0.2-2.4,0.3
	c0-0.2-0.1-0.5-0.2-0.7c-0.1-0.2-0.3-0.4-0.5-0.6c-0.2,0.2-0.4,0.4-0.4,0.6c-0.1,0.5-0.1,1-0.2,1.5c-0.4,0-0.6,0-0.9,0
	c-0.1-0.3-0.1-0.5-0.2-0.7C43,9.2,42.6,9.3,42,9.5c-0.3-0.1-0.2-1.2-1.1-0.9c0.6,2.1,0.7,1.7-1,2.9c0.5,0,0.8,0.1,1.1,0.1
	c0.2,0.2,0.4,0.5,0.6,0.7c0-0.1,0-0.2,0.1-0.3c0.6-0.2,1.2-0.4,1.9-0.6c-0.2-0.2-0.4-0.4-0.5-0.5c0-0.2,0.1-0.4,0.2-0.6
	c0.3,0.3,0.9,0.5,1,0.8c0.2,0.6,0.3,0.8,0.9,0.4c0.1-0.1,0.3,0,0.5,0c0.3,0,0.7,0,1,0.1c-0.1-0.3-0.2-0.7-0.2-1c0-0.4,0.2-0.7,0.4-1
	c0.1-0.1,0.5-0.2,0.7-0.2c0.8,0.1,0.6,0.9,0.9,1.3c0.1,0.2,0.4,0.3,0.6,0.4c0.5-0.8,1.2-0.8,2.1-0.7c0,0,0.1-0.1,0.1-0.2
	c-0.1-0.3-0.3-0.6-0.5-0.9c0.2-0.3,0.5-0.6,0.8-1C51.1,7.6,50.7,8.2,50.1,8.4z M63.9,12.6c0.1,0.1,0.3,0.2,0.5,0.2
	c0.7,0,1.4-0.1,1.6-1c0.1,0.2,0.1,0.3,0.1,0.4c0,0.2,0,0.4,0.1,0.5s0.4,0,0.5-0.1c0.3-0.4,0.6-0.4,1.1-0.3c0.2,0,0.5-0.1,0.6-0.3
	c0.1-0.2,0-0.5-0.1-0.7c-0.2-0.4-0.5-0.7-0.7-1c-0.2-0.2-0.4-0.3-0.7-0.5c-0.2,0.2-0.4,0.4-0.4,0.6c0,0.6-0.4,0.7-0.8,0.8
	c-0.3-0.4-0.6-0.8-0.9-1.1c-0.3,0.3-0.5,0.6-0.8,0.9c-0.2,0-0.5-0.1-0.8-0.1C63.5,11.5,63.6,12,63.9,12.6z M81,18.8
	c-0.2,0.2-0.4,0.3-0.5,0.5c-0.6,0.9-1.1,0.9-1.7,0c-0.1-0.2-0.1-0.5-0.2-0.8c-0.1-0.2-0.2-0.4-0.3-0.5c-0.2,0-0.4,0.1-0.6,0.2
	c-0.4,0.1-0.7,0.3-1,0.5c-0.1,0-0.1,0.1-0.2,0.1c0.1,0.2,0.3,0.3,0.4,0.5c-0.3,0.4-0.5,0.7-0.9,1.2c1-0.2,1.9-0.3,2.6-0.4
	c0.3,0.3,0.5,0.6,0.7,0.8c-0.1,0.2-0.1,0.4-0.2,0.5c0.6,0.2,1.2,0.3,1.9,0.5c0.2,0.1,0.5,0.3,0.8,0.3c0.5,0.1,1,0.1,1.5,0.1
	s0.6-0.2,0.6-0.7c-0.1-0.5,0-1.1-0.1-1.6c0-0.2-0.2-0.4-0.2-0.6c-0.2,0.1-0.4,0.2-0.7,0.3c-0.2,0.1-0.3,0.4-0.5,0.4
	c-0.3,0.1-0.7,0-1.1,0c0-0.3,0-0.8,0-1.2C81.2,18.9,81.1,18.9,81,18.8z"/>
</svg>
